<svg id="Layer_1"
     data-name="Layer 1"
     xmlns="http://www.w3.org/2000/svg"
     viewBox="0 0 200 200"
>

    <defs>
        <style>.cls-1{fill:#0d263b;}</style>
    </defs>
    <title>Wondicon - UI (Free)</title>
    <path class="cls-1"
          d="M157.68,174.91H42.32a18,18,0,0,1-18-18V88a18,18,0,0,1,18-18H157.68a18,18,0,0,1,18,18V156.9A18,18,0,0,1,157.68,174.91ZM42.32,80a8,8,0,0,0-8,8V156.9a8,8,0,0,0,8,8H157.68a8,8,0,0,0,8-8V88a8,8,0,0,0-8-8Z"/>
    <path class="cls-1"
          d="M150,80a5,5,0,0,1-3.37-1.31L101.38,37.34a2,2,0,0,0-2.76,0L53.37,78.69a5,5,0,1,1-6.74-7.38L91.88,30a12,12,0,0,1,16.24,0l45.25,41.35A5,5,0,0,1,150,80Z"/>
    <path class="cls-1"
          d="M149.32,155H50a5,5,0,0,1-4.11-7.85l34.72-50A5,5,0,0,1,84.74,95h0a5,5,0,0,1,4.1,2.15l21.24,30.54,10.79-15.54A5,5,0,0,1,125,110h0a5,5,0,0,1,4.11,2.15l24.33,35a5,5,0,0,1-4.1,7.85ZM59.59,145h80.16L125,123.76,114.2,139.31a5,5,0,0,1-4.11,2.15h0a5,5,0,0,1-4.11-2.15L84.75,108.76Z"/>
    <path class="cls-1"
          d="M128.26,124.72a5,5,0,0,1-3.28-1.23,5,5,0,0,1-4.89,1,15.13,15.13,0,1,1,9.77,0A5,5,0,0,1,128.26,124.72ZM125,105a5.13,5.13,0,0,0-1.67,10,4.86,4.86,0,0,1,1.66,1,5.19,5.19,0,0,1,1.67-1A5.13,5.13,0,0,0,125,105Z"/>
</svg>