<svg width="20" height="20" viewBox="0 0 20 20" fill="none" xmlns="http://www.w3.org/2000/svg">
<g clip-path="url(#clip0_1_871)">
<path d="M11.7509 7.58881L11.2291 8.11062C10.5997 7.78306 9.83085 7.90322 9.30474 8.42937C8.9577 8.77641 8.80838 9.14774 8.83512 9.60136C8.86444 9.99435 8.92912 10.2629 9.11069 10.7469C9.37306 11.4864 9.38009 11.8175 9.13852 12.0591C8.98502 12.2126 8.81763 12.2997 8.64091 12.3179C8.41976 12.335 8.22832 12.2545 8.03867 12.0648C7.67968 11.7058 7.69131 11.2941 8.08025 10.5963L8.21786 10.3494L7.09599 10.0736L7.01225 10.2008C6.54798 10.9062 6.51628 11.7419 6.91669 12.4232L6.40002 12.9398L7.16372 13.7035L7.68468 13.1826C7.98874 13.3639 8.32509 13.4472 8.68615 13.4306C9.17006 13.4112 9.59854 13.2184 9.95964 12.8572L9.966 12.8505C10.3729 12.4073 10.5109 11.9754 10.4279 11.408C10.3787 11.0516 10.3214 10.8704 10.2076 10.5294L10.0593 10.0614C10.0351 9.97885 10.0144 9.86701 9.98829 9.72569L9.98591 9.71289C9.95441 9.45567 10.024 9.32938 10.1546 9.1988C10.3488 9.00463 10.6544 8.99436 10.8359 9.17585C11.0342 9.37416 11.117 9.56927 10.9872 10.0316L10.925 10.2527L12.0104 10.4847L12.0706 10.3001C12.2421 9.77449 12.2144 9.29714 11.9887 8.87842L12.5147 8.35246L11.7509 7.58881Z" fill="#0061DF"/>
<path d="M20 0.838118L19.1742 0.00762939L16.916 2.25308L9.59496 1.40342L0 10.9859L8.99492 19.9925L18.5898 10.4101L17.7485 3.07689L20 0.838118ZM17.3618 9.98134L8.99597 18.3363L1.65625 10.9869L10.0221 2.63198L15.8543 3.30885L14.6815 4.47503C14.4724 4.38208 14.2444 4.33274 14.0086 4.33274C13.5664 4.33274 13.1506 4.50481 12.8377 4.81731C12.1912 5.46296 12.1905 6.51424 12.8361 7.16075C13.1492 7.47422 13.5656 7.64684 14.0086 7.64684C14.4509 7.64684 14.8667 7.47476 15.1796 7.16227C15.6832 6.65934 15.7948 5.91041 15.5145 5.29829L16.6904 4.12904L17.3618 9.98134ZM14.352 6.33361C14.2603 6.42524 14.1383 6.47571 14.0086 6.47571C13.8787 6.47571 13.7566 6.42508 13.6648 6.33319C13.4755 6.14362 13.4757 5.8353 13.6652 5.64596C13.757 5.5543 13.879 5.50387 14.0086 5.50387C14.1386 5.50387 14.2607 5.5545 14.3525 5.64639C14.5418 5.83596 14.5416 6.14428 14.352 6.33361Z" fill="#0061DF"/>
</g>
<defs>
<clipPath id="clip0_1_871">
<rect width="20" height="20" fill="white"/>
</clipPath>
</defs>
</svg>
