<svg width="8" height="16" viewBox="0 0 8 16" fill="none" xmlns="http://www.w3.org/2000/svg">
	<path d="M1 6.2805V7.25C1.00392 7.28822 1.01274 7.32578 1.02625 7.36175L1.5 8.309V15.5H3V8.309L3.475 7.36175C3.48808 7.32572 3.49648 7.28817 3.5 7.25V6.2805L3.7425 5.31075C3.74636 5.29069 3.74887 5.2704 3.75 5.25V2.75C3.75 2.6837 3.72366 2.62011 3.67678 2.57322C3.62989 2.52634 3.5663 2.5 3.5 2.5H3.25V1H2.5V0.75C2.5 0.683696 2.47366 0.620107 2.42678 0.573223C2.37989 0.526339 2.3163 0.5 2.25 0.5C2.1837 0.5 2.12011 0.526339 2.07322 0.573223C2.02634 0.620107 2 0.683696 2 0.75V1H1.25V2.5H1C0.933696 2.5 0.870107 2.52634 0.823223 2.57322C0.776339 2.62011 0.75 2.6837 0.75 2.75V5.25C0.751131 5.2704 0.753637 5.29069 0.7575 5.31075L1 6.2805ZM2.5 15H2V9.5H2.5V15ZM2.5 9H2V8.5H2.5V9ZM2.5955 8H1.9045L1.6545 7.5H2.8455L2.5955 8ZM3 7H1.5V6.5H3V7ZM3.05475 6H1.44525L1.32025 5.5H3.17975L3.05475 6ZM1.75 1.5H2.75V2.5H1.75V1.5ZM1.25 3H3.25V5H1.25V3Z" />
	<path d="M2.75 4H1.75V4.5H2.75V4Z" />
	<path d="M4.5 6.2805V7.25C4.50352 7.28817 4.51192 7.32572 4.525 7.36175L5 8.309V15.5H6.5V8.309L6.975 7.36175C6.98808 7.32572 6.99648 7.28817 7 7.25V6.2805L7.2425 5.31075C7.24636 5.29069 7.24887 5.2704 7.25 5.25V2.75C7.25 2.6837 7.22366 2.62011 7.17678 2.57322C7.12989 2.52634 7.0663 2.5 7 2.5H6.75V1H6V0.75C6 0.683696 5.97366 0.620107 5.92678 0.573223C5.87989 0.526339 5.8163 0.5 5.75 0.5C5.6837 0.5 5.62011 0.526339 5.57322 0.573223C5.52634 0.620107 5.5 0.683696 5.5 0.75V1H4.75V2.5H4.5C4.4337 2.5 4.37011 2.52634 4.32322 2.57322C4.27634 2.62011 4.25 2.6837 4.25 2.75V5.25C4.25113 5.2704 4.25364 5.29069 4.2575 5.31075L4.5 6.2805ZM6 15H5.5V9.5H6V15ZM6 9H5.5V8.5H6V9ZM6.0955 8H5.4045L5.1545 7.5H6.3455L6.0955 8ZM6.5 7H5V6.5H6.5V7ZM6.55475 6H4.94525L4.82025 5.5H6.67975L6.55475 6ZM5.25 1.5H6.25V2.5H5.25V1.5ZM4.75 3H6.75V5H4.75V3Z" />
	<path d="M6.25 4H5.25V4.5H6.25V4Z" />
</svg>
