<svg width="16" height="16" viewBox="0 0 16 16" fill="none" xmlns="http://www.w3.org/2000/svg">
	<g clip-path="url(#clip0_1_2131)">
		<path d="M7.99719 11.3219C7.23247 11.3219 6.61035 11.942 6.61035 12.7038C6.61035 13.4659 7.23247 14.0862 7.99719 14.0862C8.76216 14.0862 9.38428 13.4659 9.38428 12.7038C9.38428 11.942 8.76203 11.3219 7.99719 11.3219Z" />
		<path d="M11.3807 9.43901C10.4778 8.53662 9.27592 8.03943 7.99697 8.03943C6.72295 8.03943 5.52439 8.53334 4.62175 9.43005C4.25719 9.79285 4.25655 10.3839 4.62024 10.7474C4.7969 10.9243 5.03212 11.0214 5.28249 11.0214C5.53171 11.0214 5.76605 10.9248 5.94246 10.7494C6.49177 10.2035 7.22141 9.90276 7.99697 9.90276C8.77544 9.90276 9.5071 10.2054 10.0568 10.7545C10.2335 10.931 10.4685 11.0284 10.7187 11.0284C10.9681 11.0284 11.2023 10.9317 11.3789 10.7563C11.744 10.3935 11.7446 9.80269 11.3807 9.43901Z" />
		<path d="M15.7269 5.10666C13.6627 3.04752 10.9171 1.91382 7.99658 1.91382C5.07993 1.91382 2.33718 3.04487 0.273581 5.09912C-0.0909834 5.46192 -0.0912358 6.053 0.273077 6.41643C0.449617 6.59246 0.684458 6.68925 0.934316 6.68925C1.18405 6.68925 1.41864 6.59284 1.59518 6.41693C3.30569 4.71437 5.57902 3.77652 7.99658 3.77652C10.4177 3.77652 12.6933 4.71626 14.4042 6.42337C14.5807 6.59953 14.8159 6.6967 15.0657 6.6967C15.3153 6.6967 15.5498 6.59978 15.7263 6.42413C16.091 6.06104 16.0913 5.46975 15.7269 5.10666Z" />
		<path d="M13.4991 7.32728C12.0297 5.86132 10.0758 5.05408 7.99719 5.05408C5.92236 5.05408 3.97133 5.8588 2.50322 7.31958C2.32643 7.49536 2.22914 7.7292 2.22876 7.97817C2.22876 8.22689 2.32567 8.46098 2.50221 8.63701C2.67876 8.81317 2.91372 8.91034 3.16358 8.91034C3.41306 8.91034 3.64765 8.81343 3.82444 8.63802C4.93971 7.52842 6.4217 6.91716 7.99719 6.91716C9.57596 6.91716 11.06 7.53057 12.176 8.64395C12.3528 8.82037 12.5876 8.91753 12.8376 8.91753C13.0872 8.91753 13.3219 8.82062 13.4982 8.64496C13.6748 8.46918 13.7723 8.23535 13.7724 7.98637C13.7727 7.7374 13.6755 7.50357 13.4991 7.32728Z" />
	</g>
	<defs>
		<clipPath id="clip0_1_2131">
			<rect width="16" height="16" />
		</clipPath>
	</defs>
</svg>
